<?xml version="1.0" encoding="utf-8"?>
<svg xmlns="http://www.w3.org/2000/svg" viewBox="27.9375 53.062 415.826 365.577" width="176.309px" height="155.004px">
  <g id="group-1" transform="matrix(1, 0, 0, 1, 10.77299690246582, -2.6640000343322754)">
    <g>
      <path d="M 399.403 89.665 C 377.629 67.891 348.802 55.99 318.036 55.99 C 287.27 55.99 258.356 67.979 236.582 89.754 L 225.21 101.126 L 213.661 89.577 C 191.887 67.803 162.884 55.726 132.118 55.726 C 101.441 55.726 72.526 67.715 50.84 89.401 C 29.066 111.175 17.077 140.09 17.165 170.856 C 17.165 201.622 29.242 230.448 51.016 252.222 L 216.57 417.777 C 218.862 420.069 221.948 421.303 224.945 421.303 C 227.942 421.303 231.028 420.157 233.32 417.865 L 399.227 252.575 C 421.001 230.801 432.99 201.886 432.99 171.12 C 433.078 140.354 421.177 111.44 399.403 89.665 Z" style="fill: rgb(255, 0, 0); stroke-width: 18px; stroke: rgb(0, 0, 0);"/>
    </g>
  </g>
</svg>